# AST/ASF file generated using VICON BodyLanguage
# -----------------------------------------------
:version 1.10
:name VICON
:units
  mass 1.0
  length 0.45
  angle deg
:documentation
   .ast/.asf automatically generated from VICON data using
   VICON BodyBuilder and BodyLanguage model FoxedUp or BRILLIANT.MOD
:root
   order TX TY TZ RX RY RZ
   axis XYZ
   position 0 0 0  
   orientation 0 0 0 
:bonedata
  begin
     id 1 
     name lhipjoint
     direction 0.645893 -0.654526 0.392961 
     length 2.38111 
     axis 0 0 0  XYZ
  end
  begin
     id 2 
     name lfemur
     direction 0.34202 -0.939693 0  
     length 6.6822  
     axis 0 0 20  XYZ
    dof rx ry rz
    limits (-160.0 20.0)
           (-70.0 70.0)
           (-60.0 70.0)
  end
  begin
     id 3 
     name ltibia
     direction 0.34202 -0.939693 0   
     length 6.93904   
     axis 0 0 20   XYZ
    dof rx
    limits (-10.0 170.0)
  end
  begin
     id 4 
     name lfoot
     direction 0.0694967 -0.190941 0.979138   
     length 2.13616   
     axis -90 7.62852e-016 20   XYZ
    dof rx rz
    limits (-45.0 90.0)
           (-70.0 20.0)
  end
  begin
     id 5 
     name ltoes
     direction 1.535e-011 -4.2202e-011 1   
     length 1.07536   
     axis -90 7.62852e-016 20   XYZ
    dof rx
    limits (-90.0 20.0)
  end
  begin
     id 6 
     name rhipjoint
     direction -0.700219 -0.612087 0.367481   
     length 2.54621  
     axis 0 0 0  XYZ 
  end
  begin
     id 7 
     name rfemur
     direction -0.34202 -0.939693 0   
     length 6.55353   
     axis 0 0 -20   XYZ
    dof rx ry rz
    limits (-160.0 20.0)
           (-70.0 70.0)
           (-70.0 60.0)
  end
  begin
     id 8 
     name rtibia
     direction -0.34202 -0.939693 0   
     length 6.8736   
     axis 0 0 -20   XYZ
    dof rx
    limits (-10.0 170.0)
 end
 begin
     id 9 
     name rfoot
     direction -0.0679995 -0.186827 0.980037   
     length 2.1218  
     axis -90 -7.62852e-016 -20   XYZ
    dof rx rz
    limits (-45.0 90.0)
           (-20.0 70.0)
  end
  begin
     id 10 
     name rtoes
     direction -1.53589e-011 -4.21772e-011 1   
     length 1.06864   
     axis -90 -7.62852e-016 -20   XYZ
    dof rx
    limits (-90.0 20.0)
  end
  begin
     id 11 
     name lowerback
     direction -0.0416607 0.996347 -0.0745409   
     length 2.12205   
     axis 0 0 0   XYZ
    dof rx ry rz
    limits (-20.0 45.0)
           (-30.0 30.0)
           (-30.0 30.0)
  end
  begin
     id 12 
     name upperback
     direction -0.000153993 0.999276 -0.0380568   
     length 2.12759   
     axis 0 0 0   XYZ
    dof rx ry rz
    limits (-20.0 45.0)
           (-30.0 30.0)
           (-30.0 30.0)
  end
  begin
     id 13 
     name thorax
     direction 0.0187671 0.999821 -0.00241421   
     length 2.13704   
     axis 0 0 0   XYZ
    dof rx ry rz
    limits (-20.0 45.0)
           (-30.0 30.0)
           (-30.0 30.0)
  end
  begin
     id 14 
     name lowerneck
     direction 0.0268157 0.964865 0.261374   
     length 1.65253   
     axis 0 0 0   XYZ
    dof rx ry rz
    limits (-20.0 45.0)
           (-30.0 30.0)
           (-30.0 30.0)
  end
  begin
     id 15 
     name upperneck
     direction 0.00263774 0.939908 -0.341418   
     length 1.72375   
     axis 0 0 0   XYZ
    dof rx ry rz
    limits (-20.0 45.0)
           (-30.0 30.0)
           (-30.0 30.0)
  end
  begin
     id 16
     name head
     direction -0.00526001 0.989001 -0.147818  
     length 1.74878  
     axis 0 0 0   XYZ
    dof rx ry rz
    limits (-20.0 45.0)
           (-30.0 30.0)
           (-30.0 30.0)
  end
  begin
     id 17 
     name lclavicle
     direction 0.881214 0.461162 -0.103884  
     length 3.25108  
     axis 0 0 0   XYZ
    dof ry rz
    limits (-20.0 10.0)
           (0.0 20.0)
  end
  begin
     id 18 
     name lhumerus
     direction 1 -4.4899e-011 3.38092e-027   
     length 4.87408   
     axis 180 -30 -90   XYZ
    dof rx ry rz
    limits (-60.0 90.0)
           (-90.0 90.0)
           (-90.0 90.0)
  end
  begin
     id 19
     name lradius
     direction 1 -4.48931e-011 9.96288e-027   
     length 2.76729   
     axis 180 -30 -90   XYZ
    dof rx
    limits (-10.0 170.0)
  end
  begin
     id 20
     name lwrist
     direction 1 -4.4896e-011 1.50617e-026   
     length 1.38364   
     axis -9.31234e-015 90 90   XYZ
    dof ry
    limits (-180.0 0.0)
 end
  begin
     id 21 
     name lhand
     direction 1 -4.49038e-011 3.01286e-026   
     length 0.98922   
     axis -1.92217e-014 90 90   XYZ
    dof rx rz
    limits (-90.0 90.0)
           (-45.0 45.0)
  end
  begin
     id 22 
     name lfingers
     direction 1 -4.49051e-011 6.02588e-026   
     length 0.797535   
     axis -3.84436e-014 90 90   XYZ
    dof rx
    limits (0.0 90.0)
  end
  begin
     id 23
     name lthumb
     direction 0.707107 -6.34901e-011 0.707107   
     length 1.14511   
     axis -90 45 2.19363e-014   XYZ
    dof rx rz
    limits (-45.0 45.0)
           (-45.0 45.0)
  end
  begin
     id 24 
     name rclavicle
     direction -0.893894 0.441652 -0.0767889   
     length 3.29361  
     axis 0 0 0   XYZ 
    dof ry rz
    limits (-10.0 20.0)
           (-20.0 0.0)
  end
  begin
     id 25 
     name rhumerus
     direction -1 -4.48945e-011 8.0491e-028  
     length 4.71404   
     axis 180 30 90   XYZ
    dof rx ry rz
    limits (-90.0 60.0)
           (-90.0 90.0)
           (-90.0 90.0)
  end
  begin
     id 26 
     name rradius
     direction -1 -4.48986e-011 9.27795e-027   
     length 2.83468   
     axis 180 30 90   XYZ
    dof rx
    limits (-10.0 170.0)
  end
  begin
     id 27 
     name rwrist
     direction -1 -4.49029e-011 1.5064e-026   
     length 1.41734   
     axis -9.31234e-015 -90 -90   XYZ
    dof ry
    limits (-180.0 0.0)
  end
  begin
     id 28
     name rhand
     direction -1 -4.48857e-011 3.01165e-026   
     length 0.868195   
     axis -1.92217e-014 -90 -90   XYZ
    dof rx rz
    limits (-90.0 90.0)
           (-45.0 45.0)
  end
  begin
     id 29
     name rfingers
     direction -1 -4.49048e-011 6.02585e-026   
     length 0.699961   
     axis -3.84436e-014 -90 -90   XYZ
    dof rx
    limits (0.0 90.0)
  end
  begin
     id 30
     name rthumb
     direction -0.707107 -6.34854e-011 0.707107   
     length 1.00501   
     axis -90 -45 -2.19363e-014   XYZ
    dof rx rz
    limits (-45.0 45.0)
           (-45.0 45.0)
  end
:hierarchy
  begin
    root lhipjoint rhipjoint lowerback
    lhipjoint lfemur
    lfemur ltibia
    ltibia lfoot
    lfoot ltoes
    rhipjoint rfemur
    rfemur rtibia
    rtibia rfoot
    rfoot rtoes
    lowerback upperback
    upperback thorax
    thorax lowerneck lclavicle rclavicle
    lowerneck upperneck
    upperneck head
    lclavicle lhumerus
    lhumerus lradius
    lradius lwrist
    lwrist lhand lthumb
    lhand lfingers
    rclavicle rhumerus
    rhumerus rradius
    rradius rwrist
    rwrist rhand rthumb
    rhand rfingers
  end

#!OML:ASF H:\ManfredObstacles\Project 1\Capture day 2\Session 1\male.ASF
:FULLY-SPECIFIED
:DEGREES
39
root -0.330656 15.8116 27.9601 -172.322 1.0156 178.342
lowerback -6.76959 -0.436883 -5.42492
upperback -0.283377 -0.148816 0.530693
thorax 3.52436 -0.151841 3.58822
lowerneck -37.1369 -0.345986 2.31465
upperneck 39.3525 -0.176102 -0.322005
head 22.7699 0.850033 -0.381812
rclavicle 3.89494e-015 -6.01324e-015
rhumerus -38.9297 -24.5915 -72.0436
rradius 23.0446
rwrist 38.2634
rhand -0.949859 -7.85016
rfingers 7.12502
rthumb 24.6803 -36.2785
lclavicle 3.89494e-015 -6.01324e-015
lhumerus -29.5741 16.6315 83.027
lradius 21.0844
lwrist -48.8527
lhand 3.04767 6.02076
lfingers 7.12502
lthumb 28.5061 33.8684
rfemur -13.5455 4.82382 22.001
rtibia 28.3627
rfoot -11.6322 -21.1611
rtoes -18.6153
lfemur -15.6491 -6.72545 -24.2807
ltibia 28.5796
lfoot -4.43859 22.778
ltoes -0.771814
40
root -0.330098 15.8114 27.957 -172.312 1.02599 178.338
lowerback -6.80444 -0.207566 -5.34285
upperback -0.266145 0.164599 0.287549
thorax 3.53049 0.00781001 3.31922
lowerneck -37.0924 -0.524345 2.60515
upperneck 39.3251 -0.682774 -0.282596
head 22.7232 0.731122 -0.555554
rclavicle -9.83052e-016 -9.36773e-015
rhumerus -39.2667 -25.4113 -71.9769
rradius 23.1296
rwrist 38.3095
rhand -0.961262 -7.84005
rfingers 7.12502
rthumb 24.6693 -36.2699
lclavicle -9.83052e-016 -9.36773e-015
lhumerus -29.3382 15.68 83.0449
lradius 21.0363
lwrist -48.629
lhand 3.09181 6.08274
lfingers 7.12502
lthumb 28.5483 33.9233
rfemur -13.5474 4.82906 21.9975
rtibia 28.3671
rfoot -11.6455 -21.1565
rtoes -18.4373
lfemur -15.6467 -6.73777 -24.2837
ltibia 28.5812
lfoot -4.43744 22.808
ltoes -0.758321
41
root -0.329493 15.8113 27.954 -172.303 1.03542 178.333
lowerback -6.83236 -0.0809126 -5.30982
upperback -0.254657 0.339435 0.15669
thorax 3.54211 0.0964732 3.18155
lowerneck -37.0387 -0.622184 2.76392
upperneck 39.2951 -0.959092 -0.259608
head 22.6775 0.665981 -0.649215
rclavicle 5.684e-015 -2.5345e-015
rhumerus -39.4534 -25.853 -71.9377
rradius 23.1812
rwrist 38.3303
rhand -0.972135 -7.82256
rfingers 7.12502
rthumb 24.6589 -36.2538
lclavicle 5.684e-015 -2.5345e-015
lhumerus -29.197 15.1748 83.0456
lradius 20.9999
lwrist -48.5464
lhand 3.12127 6.12203
lfingers 7.12502
lthumb 28.5764 33.9578
rfemur -13.5489 4.83295 21.9925
rtibia 28.3711
rfoot -11.6586 -21.1528
rtoes -18.3072
lfemur -15.6442 -6.74078 -24.2887
ltibia 28.5815
lfoot -4.43597 22.8291
ltoes -0.754535
42
root -0.328847 15.8113 27.9511 -172.294 1.04347 178.327
lowerback -6.85808 0.049814 -5.28013
upperback -0.244511 0.520228 0.0232267
thorax 3.55156 0.188281 3.04376
lowerneck -36.9537 0.864633 1.7157
upperneck 39.2184 -2.07242 0.730808
head 22.6339 -0.90722 -0.735744
rclavicle 6.00702e-015 1.04362e-014
rhumerus -39.6476 -26.3037 -71.8953
rradius 23.2328
rwrist 38.3433
rhand -0.987633 -7.80455
rfingers 7.12502
rthumb 24.6441 -36.2378
lclavicle 6.00702e-015 1.04362e-014
lhumerus -29.0524 14.6605 83.0415
lradius 20.9518
lwrist -48.4805
lhand 3.15667 6.1633
lfingers 7.12502
lthumb 28.6102 33.9934
rfemur -13.5498 4.83787 21.9874
rtibia 28.3746
rfoot -11.6685 -21.1527
rtoes -18.2599
lfemur -15.6404 -6.74218 -24.2941
ltibia 28.5807
lfoot -4.4379 22.8464
ltoes -0.746932
43
root -0.328259 15.8112 27.9482 -172.286 1.05136 178.32
lowerback -6.88111 0.222393 -5.22479
upperback -0.232897 0.757653 -0.160062
thorax 3.55805 0.309565 2.84533
lowerneck -36.8507 0.723231 1.89601
upperneck 39.1655 -2.45915 0.79843
head 22.5642 -1.0046 -0.840027
rclavicle -9.28076e-015 1.59028e-015
rhumerus -39.9058 -26.9103 -71.8397
rradius 23.2973
rwrist 38.3776
rhand -1.00686 -7.78821
rfingers 7.12502
rthumb 24.6256 -36.224
lclavicle -9.28076e-015 1.59028e-015
lhumerus -28.8696 13.978 83.0259
lradius 20.8862
lwrist -48.4131
lhand 3.19427 6.19712
lfingers 7.12502
lthumb 28.6462 34.0212
rfemur -13.5493 4.83751 21.981
rtibia 28.3774
rfoot -11.6787 -21.1486
rtoes -18.1997
lfemur -15.6365 -6.74164 -24.3016
ltibia 28.5796
lfoot -4.43764 22.8581
ltoes -0.759338
44
root -0.327673 15.8112 27.9454 -172.279 1.05761 178.313
lowerback -6.90312 0.216891 -5.25611
upperback -0.215648 0.753429 -0.14324
thorax 3.58815 0.3054 2.88041
lowerneck -36.8016 0.711413 1.8404
upperneck 39.1439 -2.4518 0.828076
head 22.5363 -1.00741 -0.811549
rclavicle -1.2921e-015 8.24956e-015
rhumerus -39.8583 -26.8764 -71.8486
rradius 23.2948
rwrist 38.356
rhand -1.0207 -7.77779
rfingers 7.12502
rthumb 24.6124 -36.2154
lclavicle -1.2921e-015 8.24956e-015
lhumerus -28.8208 14.0665 83.011
lradius 20.8417
lwrist -48.5101
lhand 3.19573 6.20484
lfingers 7.12502
lthumb 28.6476 34.0287
rfemur -13.5475 4.83484 21.9745
rtibia 28.3788
rfoot -11.6853 -21.1466
rtoes -18.343
lfemur -15.6319 -6.7404 -24.3098
ltibia 28.579
lfoot -4.43906 22.8688
ltoes -0.757222
45
root -0.327127 15.8112 27.9426 -172.272 1.06192 178.308
lowerback -6.91766 0.20987 -5.26375
upperback -0.194677 0.745085 -0.133009
thorax 3.61863 0.299494 2.89485
lowerneck -36.8386 0.69664 1.77963
upperneck 39.153 -2.44647 0.852687
head 22.5547 -1.01056 -0.786443
rclavicle 5.18083e-015 3.18055e-015
rhumerus -39.7948 -26.8505 -71.8685
rradius 23.2861
rwrist 38.3409
rhand -1.03418 -7.77136
rfingers 7.12502
rthumb 24.5994 -36.2107
lclavicle 5.18083e-015 3.18055e-015
lhumerus -28.7695 14.1484 82.9901
lradius 20.8012
lwrist -48.5928
lhand 3.18204 6.20461
lfingers 7.12502
lthumb 28.6345 34.0306
rfemur -13.5438 4.82605 21.9708
rtibia 28.3792
rfoot -11.6944 -21.1408
rtoes -18.2945
lfemur -15.6264 -6.73963 -24.3153
ltibia 28.579
lfoot -4.44714 22.8751
ltoes -0.746377
46
root -0.326592 15.8111 27.9398 -172.266 1.06559 178.305
lowerback -6.92021 0.38125 -5.16267
upperback -0.201306 0.977118 -0.331884
thorax 3.59773 0.420543 2.6539
lowerneck -36.815 0.548568 1.951
upperneck 39.1568 -2.84522 0.91223
head 22.5487 -1.11537 -0.899107
rclavicle 9.69075e-016 -3.97569e-016
rhumerus -40.0863 -27.4547 -71.8118
rradius 23.3481
rwrist 38.3765
rhand -1.05474 -7.76486
rfingers 7.12502
rthumb 24.5797 -36.2069
lclavicle 9.69075e-016 -3.97569e-016
lhumerus -28.6469 13.426 82.9455
lradius 20.7557
lwrist -48.4992
lhand 3.17717 6.20273
lfingers 7.12502
lthumb 28.6298 34.0295
rfemur -13.5378 4.81577 21.9703
rtibia 28.3785
rfoot -11.7059 -21.1331
rtoes -18.2346
lfemur -15.62 -6.73849 -24.3183
ltibia 28.5796
lfoot -4.45481 22.8835
ltoes -0.734893
47
root -0.326027 15.811 27.9369 -172.262 1.06849 178.303
lowerback -6.91762 0.51293 -5.08432
upperback -0.211354 1.15534 -0.48469
thorax 3.57566 0.513933 2.46835
lowerneck -36.8089 0.439696 2.08876
upperneck 39.1692 -3.1474 0.952664
head 22.5536 -1.19436 -0.988752
rclavicle -2.55935e-015 1.17283e-014
rhumerus -40.3231 -27.916 -71.7599
rradius 23.3983
rwrist 38.4015
rhand -1.07057 -7.76423
rfingers 7.12502
rthumb 24.5646 -36.2083
lclavicle -2.55935e-015 1.17283e-014
lhumerus -28.5668 12.8834 82.8966
lradius 20.7173
lwrist -48.4617
lhand 3.15628 6.1863
lfingers 7.12502
lthumb 28.6099 34.0165
rfemur -13.5307 4.80423 21.9709
rtibia 28.3774
rfoot -11.7172 -21.1248
rtoes -18.1475
lfemur -15.613 -6.73727 -24.3203
ltibia 28.5805
lfoot -4.46295 22.8913
ltoes -0.728129
48
root -0.325412 15.8108 27.9341 -172.257 1.07084 178.302
lowerback -6.91385 0.635438 -5.01142
upperback -0.223384 1.32123 -0.625725
thorax 3.55286 0.601039 2.29689
lowerneck -36.7901 0.339448 2.22317
upperneck 39.1779 -3.42889 0.985462
head 22.5518 -1.26829 -1.07585
rclavicle -4.72114e-015 7.7526e-015
rhumerus -40.5512 -28.3352 -71.711
rradius 23.4517
rwrist 38.411
rhand -1.07684 -7.77541
rfingers 7.12502
rthumb 24.5586 -36.2203
lclavicle -4.72114e-015 7.7526e-015
lhumerus -28.5022 12.3696 82.8524
lradius 20.6884
lwrist -48.4135
lhand 3.13583 6.17616
lfingers 7.12502
lthumb 28.5903 34.0096
rfemur -13.5237 4.7949 21.9738
rtibia 28.3768
rfoot -11.7308 -21.1179
rtoes -18.0269
lfemur -15.607 -6.7349 -24.3201
ltibia 28.5805
lfoot -4.45772 22.9001
ltoes -0.748359
49
root -0.3247 15.8106 27.9313 -172.252 1.07359 178.3
lowerback -6.92594 0.691185 -4.98337
upperback -0.226596 1.39792 -0.686128
thorax 3.55271 0.64086 2.22608
lowerneck -36.7655 0.292618 2.28373
upperneck 39.1811 -3.55538 0.993225
head 22.5454 -1.3033 -1.11876
rclavicle -1.62755e-014 -1.5704e-014
rhumerus -40.6597 -28.518 -71.6818
rradius 23.4822
rwrist 38.406
rhand -1.0734 -7.79615
rfingers 7.12502
rthumb 24.5619 -36.2406
lclavicle -1.62755e-014 -1.5704e-014
lhumerus -28.4854 12.1667 82.809
lradius 20.6653
lwrist -48.4782
lhand 3.09946 6.14041
lfingers 7.12502
lthumb 28.5556 33.9797
rfemur -13.5174 4.78908 21.9758
rtibia 28.377
rfoot -11.7417 -21.1147
rtoes -17.9034
lfemur -15.6007 -6.72993 -24.3207
ltibia 28.5795
lfoot -4.45512 22.905
ltoes -0.775897
50
root -0.323901 15.8104 27.9285 -172.245 1.07652 178.298
lowerback -6.95489 0.653819 -5.01409
upperback -0.217172 1.34943 -0.636048
thorax 3.58044 0.61443 2.29127
lowerneck -36.739 0.321334 2.24283
upperneck 39.172 -3.46459 0.968654
head 22.5317 -1.28233 -1.09842
rclavicle -6.01324e-015 8.34896e-015
rhumerus -40.5931 -28.3722 -71.6892
rradius 23.4777
rwrist 38.3773
rhand -1.06604 -7.81966
rfingers 7.12502
rthumb 24.5689 -36.2632
lclavicle -6.01324e-015 8.34896e-015
lhumerus -28.5207 12.3974 82.7708
lradius 20.644
lwrist -48.6592
lhand 3.05872 6.09779
lfingers 7.12502
lthumb 28.5167 33.9436
rfemur -13.5137 4.79051 21.9769
rtibia 28.3784
rfoot -11.7495 -21.119
rtoes -17.7715
lfemur -15.5953 -6.72404 -24.3214
ltibia 28.5766
lfoot -4.45321 22.9094
ltoes -0.794284
51
root -0.323113 15.8103 27.9258 -172.236 1.07934 178.296
lowerback -6.98492 0.546822 -5.08072
upperback -0.198621 1.2063 -0.507959
thorax 3.62326 0.538283 2.44844
lowerneck -36.7405 0.411855 2.13389
upperneck 39.1606 -3.20947 0.92092
head 22.5256 -1.21638 -1.03136
rclavicle 1.90336e-014 3.57812e-015
rhumerus -40.39 -27.9885 -71.7306
rradius 23.4437
rwrist 38.3426
rhand -1.05572 -7.84152
rfingers 7.12502
rthumb 24.5788 -36.2837
lclavicle 1.90336e-014 3.57812e-015
lhumerus -28.5916 12.9409 82.7314
lradius 20.6267
lwrist -48.9156
lhand 3.01413 6.0493
lfingers 7.12502
lthumb 28.4741 33.9023
rfemur -13.5123 4.79544 21.9782
rtibia 28.3792
rfoot -11.7588 -21.1233
rtoes -17.5937
lfemur -15.5924 -6.7185 -24.321
ltibia 28.5736
lfoot -4.45699 22.9101
ltoes -0.804917
52
root -0.322356 15.8101 27.923 -172.226 1.08057 178.292
lowerback -7.00517 0.429077 -5.15156
upperback -0.179799 1.04825 -0.37235
thorax 3.66288 0.454609 2.61411
lowerneck -36.7688 0.520052 2.03306
upperneck 39.1532 -2.92542 0.862768
head 22.5294 -1.13955 -0.963091
rclavicle 8.39865e-015 -2.78299e-015
rhumerus -40.1665 -27.5836 -71.774
rradius 23.3983
rwrist 38.3257
rhand -1.05254 -7.85093
rfingers 7.12502
rthumb 24.5819 -36.2927
lclavicle 8.39865e-015 -2.78299e-015
lhumerus -28.6661 13.5319 82.6849
lradius 20.611
lwrist -49.1832
lhand 2.97886 6.00456
lfingers 7.12502
lthumb 28.4404 33.8632
rfemur -13.5124 4.80212 21.9767
rtibia 28.3792
rfoot -11.7651 -21.1307
rtoes -17.4735
lfemur -15.5916 -6.71538 -24.3228
ltibia 28.5707
lfoot -4.46024 22.9099
ltoes -0.816383
53
root -0.32159 15.8101 27.9202 -172.214 1.08204 178.29
lowerback -7.01382 0.266879 -5.24329
upperback -0.16005 0.829126 -0.186931
thorax 3.70235 0.339363 2.83706
lowerneck -36.8106 0.672092 1.89443
upperneck 39.1452 -2.53457 0.790661
head 22.5372 -1.0329 -0.864936
rclavicle 1.30825e-014 -1.78906e-014
rhumerus -39.8604 -27.0277 -71.8323
rradius 23.3282
rwrist 38.3135
rhand -1.05262 -7.84721
rfingers 7.12502
rthumb 24.5818 -36.289
lclavicle 1.30825e-014 -1.78906e-014
lhumerus -28.7649 14.3238 82.6364
lradius 20.5953
lwrist -49.481
lhand 2.94557 5.9676
lfingers 7.12502
lthumb 28.4085 33.8315
rfemur -13.5133 4.8086 21.9778
rtibia 28.3778
rfoot -11.7733 -21.1369
rtoes -17.316
lfemur -15.592 -6.71115 -24.3216
ltibia 28.5687
lfoot -4.46946 22.9104
ltoes -0.803212
